<mxfile host="drawio-plugin" modified="2023-02-02T09:41:18.506Z" agent="5.0 (Windows NT 6.2; Win64; x64) AppleWebKit/537.36 (KHTML, like Gecko) Chrome/89.0.4389.114 Safari/537.36" version="20.5.3" etag="UqwLcCmWykF49bskMBSd" type="embed"><diagram id="tjybROabmGU0jiyHC7jw" name="Page-1"><mxGraphModel dx="1086" dy="696" grid="1" gridSize="10" guides="1" tooltips="1" connect="1" arrows="1" fold="1" page="1" pageScale="1" pageWidth="850" pageHeight="1100" math="0" shadow="0"><root><mxCell id="0"/><mxCell id="1" parent="0"/><mxCell id="2" value=":OrderTerminal" style="shape=umlLifeline;perimeter=lifelinePerimeter;whiteSpace=wrap;html=1;container=1;collapsible=0;recursiveResize=0;outlineConnect=0;" vertex="1" parent="1"><mxGeometry x="230" y="60" width="130" height="660" as="geometry"/></mxCell><mxCell id="32" value="" style="html=1;points=[];perimeter=orthogonalPerimeter;" vertex="1" parent="2"><mxGeometry x="55" y="60" width="20" height="600" as="geometry"/></mxCell><mxCell id="10" value="" style="endArrow=classic;html=1;rounded=0;startArrow=none;startFill=0;endFill=1;" edge="1" parent="2"><mxGeometry width="50" height="50" relative="1" as="geometry"><mxPoint x="-99.99999999999997" y="130" as="sourcePoint"/><mxPoint x="49.39999999999998" y="130" as="targetPoint"/><Array as="points"><mxPoint x="-20.099999999999994" y="130"/></Array></mxGeometry></mxCell><mxCell id="11" value="Type Menu Option" style="edgeLabel;html=1;align=center;verticalAlign=middle;resizable=0;points=[];" vertex="1" connectable="0" parent="10"><mxGeometry x="0.0167" relative="1" as="geometry"><mxPoint as="offset"/></mxGeometry></mxCell><mxCell id="14" value="" style="html=1;points=[];perimeter=orthogonalPerimeter;" vertex="1" parent="2"><mxGeometry x="60" y="140" width="10" height="480" as="geometry"/></mxCell><mxCell id="15" value="Switch (Input)" style="text;align=center;fontStyle=1;verticalAlign=middle;spacingLeft=3;spacingRight=3;strokeColor=none;rotatable=0;points=[[0,0.5],[1,0.5]];portConstraint=eastwest;" vertex="1" parent="2"><mxGeometry x="10" y="140" width="80" height="26" as="geometry"/></mxCell><mxCell id="16" value="Case: Add" style="text;html=1;strokeColor=none;fillColor=none;align=center;verticalAlign=middle;whiteSpace=wrap;rounded=0;" vertex="1" parent="2"><mxGeometry x="20" y="166" width="60" height="30" as="geometry"/></mxCell><mxCell id="25" value="" style="endArrow=classic;html=1;rounded=0;startArrow=none;startFill=0;endFill=1;" edge="1" parent="2" source="3"><mxGeometry width="50" height="50" relative="1" as="geometry"><mxPoint x="-94.4" y="230" as="sourcePoint"/><mxPoint x="50" y="230" as="targetPoint"/><Array as="points"><mxPoint x="-14.5" y="230"/></Array></mxGeometry></mxCell><mxCell id="26" value="Type Menue Number" style="edgeLabel;html=1;align=center;verticalAlign=middle;resizable=0;points=[];" vertex="1" connectable="0" parent="25"><mxGeometry x="0.0167" relative="1" as="geometry"><mxPoint as="offset"/></mxGeometry></mxCell><mxCell id="29" style="edgeStyle=orthogonalEdgeStyle;rounded=0;orthogonalLoop=1;jettySize=auto;html=1;startArrow=none;startFill=0;endArrow=classic;endFill=1;" edge="1" parent="2" source="14" target="14"><mxGeometry relative="1" as="geometry"><Array as="points"><mxPoint x="130" y="250"/><mxPoint x="100" y="270"/></Array></mxGeometry></mxCell><mxCell id="30" value="addMenu()" style="edgeLabel;html=1;align=center;verticalAlign=middle;resizable=0;points=[];" vertex="1" connectable="0" parent="29"><mxGeometry x="-0.679" relative="1" as="geometry"><mxPoint x="8" as="offset"/></mxGeometry></mxCell><mxCell id="31" value="Case: Remove" style="text;html=1;strokeColor=none;fillColor=none;align=center;verticalAlign=middle;whiteSpace=wrap;rounded=0;" vertex="1" parent="2"><mxGeometry x="-5" y="280" width="110" height="30" as="geometry"/></mxCell><mxCell id="33" value="While(true)" style="text;html=1;strokeColor=none;fillColor=none;align=center;verticalAlign=middle;whiteSpace=wrap;rounded=0;labelBackgroundColor=default;" vertex="1" parent="2"><mxGeometry x="35" y="60" width="60" height="30" as="geometry"/></mxCell><mxCell id="38" value="" style="endArrow=classic;html=1;rounded=0;" edge="1" parent="2" source="14" target="14"><mxGeometry width="50" height="50" relative="1" as="geometry"><mxPoint x="120" y="370" as="sourcePoint"/><mxPoint x="170" y="320" as="targetPoint"/><Array as="points"><mxPoint x="130" y="380"/></Array></mxGeometry></mxCell><mxCell id="39" value="removeProduct(Product)" style="edgeLabel;html=1;align=center;verticalAlign=middle;resizable=0;points=[];" vertex="1" connectable="0" parent="38"><mxGeometry x="-0.4686" y="1" relative="1" as="geometry"><mxPoint x="23" y="-9" as="offset"/></mxGeometry></mxCell><mxCell id="40" value="Case: Checkout" style="text;html=1;strokeColor=none;fillColor=none;align=center;verticalAlign=middle;whiteSpace=wrap;rounded=0;" vertex="1" parent="2"><mxGeometry x="10" y="400" width="110" height="30" as="geometry"/></mxCell><mxCell id="41" value="" style="endArrow=none;html=1;rounded=0;startArrow=classic;startFill=1;endFill=0;" edge="1" parent="2"><mxGeometry width="50" height="50" relative="1" as="geometry"><mxPoint x="-100" y="429.99999999999994" as="sourcePoint"/><mxPoint x="60" y="429.99999999999994" as="targetPoint"/><Array as="points"><mxPoint x="-20.099999999999994" y="430"/></Array></mxGeometry></mxCell><mxCell id="42" value="displayBill()" style="edgeLabel;html=1;align=center;verticalAlign=middle;resizable=0;points=[];" vertex="1" connectable="0" parent="41"><mxGeometry x="0.0167" relative="1" as="geometry"><mxPoint as="offset"/></mxGeometry></mxCell><mxCell id="50" style="edgeStyle=orthogonalEdgeStyle;rounded=0;orthogonalLoop=1;jettySize=auto;html=1;entryX=1.08;entryY=0.648;entryDx=0;entryDy=0;entryPerimeter=0;startArrow=none;startFill=0;endArrow=classic;endFill=1;exitX=0.926;exitY=0.613;exitDx=0;exitDy=0;exitPerimeter=0;" edge="1" parent="2" source="14" target="14"><mxGeometry relative="1" as="geometry"><Array as="points"><mxPoint x="69" y="440"/><mxPoint x="130" y="440"/><mxPoint x="130" y="451"/></Array></mxGeometry></mxCell><mxCell id="51" value="break;" style="edgeLabel;html=1;align=center;verticalAlign=middle;resizable=0;points=[];" vertex="1" connectable="0" parent="50"><mxGeometry x="-0.3776" y="1" relative="1" as="geometry"><mxPoint x="-1" as="offset"/></mxGeometry></mxCell><mxCell id="52" value="Case: Checkout" style="text;html=1;strokeColor=none;fillColor=none;align=center;verticalAlign=middle;whiteSpace=wrap;rounded=0;" vertex="1" parent="2"><mxGeometry x="10" y="460" width="110" height="30" as="geometry"/></mxCell><mxCell id="53" value="" style="endArrow=none;html=1;rounded=0;startArrow=classic;startFill=1;endFill=0;" edge="1" parent="2" source="14" target="2"><mxGeometry width="50" height="50" relative="1" as="geometry"><mxPoint x="80" y="380" as="sourcePoint"/><mxPoint x="80" y="400" as="targetPoint"/><Array as="points"><mxPoint x="130" y="530"/><mxPoint x="130" y="500"/></Array></mxGeometry></mxCell><mxCell id="54" value="break;" style="edgeLabel;html=1;align=center;verticalAlign=middle;resizable=0;points=[];" vertex="1" connectable="0" parent="53"><mxGeometry x="-0.4686" y="1" relative="1" as="geometry"><mxPoint x="-6" y="-29" as="offset"/></mxGeometry></mxCell><mxCell id="3" value="User" style="shape=umlLifeline;participant=umlActor;perimeter=lifelinePerimeter;whiteSpace=wrap;html=1;container=1;collapsible=0;recursiveResize=0;verticalAlign=top;spacingTop=36;outlineConnect=0;" vertex="1" parent="1"><mxGeometry x="120" y="70" width="20" height="650" as="geometry"/></mxCell><mxCell id="5" value=":MenuCard" style="shape=umlLifeline;perimeter=lifelinePerimeter;whiteSpace=wrap;html=1;container=1;collapsible=0;recursiveResize=0;outlineConnect=0;" vertex="1" parent="1"><mxGeometry x="440" y="60" width="100" height="140" as="geometry"/></mxCell><mxCell id="7" value="" style="endArrow=none;html=1;rounded=0;startArrow=classic;startFill=1;endFill=0;" edge="1" parent="1" source="3" target="2"><mxGeometry width="50" height="50" relative="1" as="geometry"><mxPoint x="150" y="170" as="sourcePoint"/><mxPoint x="200" y="120" as="targetPoint"/><Array as="points"><mxPoint x="210" y="160"/></Array></mxGeometry></mxCell><mxCell id="9" value="displayMenu()" style="edgeLabel;html=1;align=center;verticalAlign=middle;resizable=0;points=[];" vertex="1" connectable="0" parent="7"><mxGeometry x="0.0167" relative="1" as="geometry"><mxPoint as="offset"/></mxGeometry></mxCell><mxCell id="23" value="" style="endArrow=none;html=1;rounded=0;startArrow=classic;startFill=1;endFill=0;" edge="1" parent="1"><mxGeometry width="50" height="50" relative="1" as="geometry"><mxPoint x="130" y="270" as="sourcePoint"/><mxPoint x="279.39999999999986" y="270" as="targetPoint"/><Array as="points"><mxPoint x="209.9" y="270"/></Array></mxGeometry></mxCell><mxCell id="24" value="displayMenu()" style="edgeLabel;html=1;align=center;verticalAlign=middle;resizable=0;points=[];" vertex="1" connectable="0" parent="23"><mxGeometry x="0.0167" relative="1" as="geometry"><mxPoint as="offset"/></mxGeometry></mxCell><mxCell id="34" value="" style="endArrow=none;html=1;rounded=0;startArrow=classic;startFill=1;endFill=0;" edge="1" parent="1" target="14"><mxGeometry width="50" height="50" relative="1" as="geometry"><mxPoint x="130" y="369.31" as="sourcePoint"/><mxPoint x="279.39999999999986" y="369.31" as="targetPoint"/><Array as="points"><mxPoint x="209.9" y="369.31"/></Array></mxGeometry></mxCell><mxCell id="35" value="displayOrderList()" style="edgeLabel;html=1;align=center;verticalAlign=middle;resizable=0;points=[];" vertex="1" connectable="0" parent="34"><mxGeometry x="0.0167" relative="1" as="geometry"><mxPoint as="offset"/></mxGeometry></mxCell><mxCell id="36" value="" style="endArrow=classic;html=1;rounded=0;startArrow=none;startFill=0;endFill=1;" edge="1" parent="1"><mxGeometry width="50" height="50" relative="1" as="geometry"><mxPoint x="130" y="399.99999999999994" as="sourcePoint"/><mxPoint x="290" y="399.99999999999994" as="targetPoint"/><Array as="points"><mxPoint x="209.9" y="400"/></Array></mxGeometry></mxCell><mxCell id="37" value="Get Index from User" style="edgeLabel;html=1;align=center;verticalAlign=middle;resizable=0;points=[];" vertex="1" connectable="0" parent="36"><mxGeometry x="0.0167" relative="1" as="geometry"><mxPoint as="offset"/></mxGeometry></mxCell><mxCell id="55" value="" style="endArrow=classic;html=1;rounded=0;startArrow=none;startFill=0;endFill=1;" edge="1" parent="1" source="32" target="5"><mxGeometry width="50" height="50" relative="1" as="geometry"><mxPoint x="350.00034482758616" y="149.99999999999994" as="sourcePoint"/><mxPoint x="514.69" y="149.99999999999994" as="targetPoint"/><Array as="points"><mxPoint x="430.19" y="150"/></Array></mxGeometry></mxCell><mxCell id="56" value="getMenu()" style="edgeLabel;html=1;align=center;verticalAlign=middle;resizable=0;points=[];" vertex="1" connectable="0" parent="55"><mxGeometry x="0.0167" relative="1" as="geometry"><mxPoint as="offset"/></mxGeometry></mxCell></root></mxGraphModel></diagram></mxfile>